<svg xmlns="http://www.w3.org/2000/svg" fill-rule="evenodd" stroke-linejoin="round" stroke-miterlimit="2" clip-rule="evenodd" viewBox="0 0 64 64" id="recycle-bin">
  <g transform="translate(-142 -141)">
    <g transform="translate(142 141)">
      <rect width="84" height="64" fill="none"></rect>
      <g transform="matrix(1.07459 0 0 .95885 -156.95 -132.893)">
        <path d="M191.325,163.248C191.34,163.1 191.298,162.952 191.21,162.841C191.122,162.73 190.995,162.666 190.863,162.666L160.807,162.666C160.674,162.666 160.548,162.73 160.46,162.841C160.372,162.952 160.33,163.1 160.345,163.248C160.345,163.248 162.541,184.596 163.444,193.366C163.687,195.734 165.477,197.521 167.604,197.521C171.991,197.521 179.679,197.521 184.066,197.521C186.193,197.521 187.982,195.734 188.226,193.366C189.128,184.596 191.325,163.248 191.325,163.248ZM190.341,163.709L187.302,193.246C187.112,195.088 185.72,196.479 184.066,196.479C179.679,196.479 171.991,196.479 167.604,196.479C165.949,196.479 164.558,195.088 164.368,193.246C164.368,193.246 161.329,163.709 161.329,163.709L190.341,163.709Z"></path>
      </g>
      <g transform="rotate(15 675.047 -472.693)scale(1.05368)">
        <path d="M177.11,152.891L177.11,152.212C177.11,151.583 176.86,150.98 176.415,150.535C175.97,150.09 175.367,149.84 174.738,149.84C172.907,149.84 170.152,149.84 168.322,149.84C167.693,149.84 167.089,150.09 166.644,150.535C166.199,150.98 165.949,151.583 165.949,152.212C165.949,152.212 165.949,152.891 165.949,152.891C165.949,152.891 158.498,152.891 158.498,152.891C156.027,152.891 154.024,154.894 154.023,157.365C154.023,158.89 154.023,160.267 154.023,160.267C154.023,160.529 154.236,160.742 154.498,160.742L188.562,160.742C188.824,160.742 189.036,160.529 189.036,160.267L189.036,157.365C189.036,154.894 187.033,152.891 184.562,152.891L177.11,152.891ZM176.161,153.365C176.161,153.628 176.374,153.84 176.636,153.84L184.562,153.84C186.509,153.84 188.087,155.418 188.087,157.365C188.087,157.365 188.087,159.793 188.087,159.793C188.087,159.793 154.973,159.793 154.973,159.793C154.973,159.793 154.973,157.365 154.973,157.365C154.973,155.418 156.551,153.84 158.498,153.84C158.498,153.84 166.424,153.84 166.424,153.84C166.686,153.84 166.899,153.628 166.899,153.365L166.899,152.212C166.899,151.835 167.049,151.473 167.315,151.206C167.582,150.939 167.945,150.789 168.322,150.789L174.738,150.789C175.115,150.789 175.477,150.939 175.744,151.206C176.011,151.473 176.161,151.835 176.161,152.212L176.161,153.365Z"></path>
      </g>
      <g transform="translate(-141.301 -141)">
        <path d="M172.801,170.174L172.801,190.49C172.801,190.766 173.025,190.99 173.301,190.99C173.577,190.99 173.801,190.766 173.801,190.49L173.801,170.174C173.801,169.898 173.577,169.674 173.301,169.674C173.025,169.674 172.801,169.898 172.801,170.174Z"></path>
      </g>
      <g transform="translate(-134.651 -141)">
        <path d="M174.465,170.133L172.803,190.449C172.78,190.724 172.985,190.966 173.26,190.988C173.535,191.011 173.777,190.806 173.799,190.531L175.462,170.215C175.484,169.94 175.279,169.698 175.004,169.676C174.729,169.653 174.487,169.858 174.465,170.133Z"></path>
      </g>
      <g transform="matrix(-1 0 0 1 198.651 -141)">
        <path d="M175.462,170.215L173.799,190.531C173.777,190.806 173.535,191.011 173.26,190.988C172.985,190.966 172.78,190.724 172.803,190.449L174.465,170.133C174.487,169.858 174.729,169.653 175.004,169.676C175.279,169.698 175.484,169.94 175.462,170.215Z"></path>
      </g>
    </g>
  </g>
</svg>
