<?xml version="1.0" encoding="utf-8"?>
<!-- Generator: Adobe Illustrator 24.0.1, SVG Export Plug-In . SVG Version: 6.00 Build 0)  -->
<svg version="1.1" id="Layer_1" xmlns="http://www.w3.org/2000/svg" xmlns:xlink="http://www.w3.org/1999/xlink" x="0px" y="0px"
	 viewBox="360 290 400 400" style="enable-background:new 0 0 1080 1080;" xml:space="preserve">
<style type="text/css">
	.st0{fill:#ED1C24;}
	.st1{fill:#0A723B;}
	.st2{fill:#FFFFFF;}
</style>

			
		</g>
		<g>
			
			
			
			
	<g>
		<g>
			<path class="st0" d="M564.75,410.45c0.06,0.51,0.13,1.02,0.21,1.53l-0.08-0.62C564.83,411.06,564.79,410.76,564.75,410.45z"/>
		</g>
		<g>
			<path class="st1" d="M686.02,407.66c0,40.88-33,74.2-73.75,74.72h-0.04c-0.77,0.02-1.54,0.02-2.31,0.01
				c-16.91-0.16-32.48-5.95-44.92-15.58c-3.38-2.6-6.52-5.49-9.41-8.63l-7.45-10.34c-1.59-2.54-3.11-5.18-4.65-7.9
				c3.01,0.34,5.21,0.8,7.41,0.79c0.26,0,0.52,0,0.78-0.01c0.41,0,0.82-0.01,1.24-0.02c1.02-0.01,2.04-0.04,3.06-0.07
				c0.23-0.01,0.47-0.01,0.7-0.02c4.55-0.16,9.08-0.36,13.61-0.2c9.82,0.37,17.74,3.78,22.64,11.66l0,0c1.03,1.67,2.31,4.2,3.04,7.5
				c0.49,2.22,0.59,4.2,0.55,5.74c-8.49-0.71-16.32-3.29-23.8-6.86c-0.64-0.3-1.27-0.61-1.9-0.93
				c10.77,8.61,24.38,13.82,39.21,13.96c0.39,0,0.79,0,1.18,0c0.24,0,0.48,0,0.71,0c5.69-0.11,11.22-0.98,16.47-2.51
				c0.03-0.01,0.06-0.02,0.1-0.03c0.1-0.03,0.22-0.06,0.36-0.1c1.49-0.43,4.58-1.33,5.42-1.63c0.05-0.01,0.09-0.03,0.12-0.04
				c23.83-9.26,40.76-32.45,40.76-59.52c0-35.19-28.63-63.82-63.82-63.82c-0.84,0-1.68,0.02-2.52,0.05
				c-0.25,0.01-0.49,0.02-0.73,0.04c-0.41,0.01-0.82,0.04-1.24,0.07c-0.49,0.03-0.99,0.07-1.47,0.12c-0.54,0.05-1.08,0.1-1.62,0.17
				c-0.43,0.05-0.87,0.11-1.31,0.17c-0.45,0.06-0.89,0.13-1.34,0.2c-0.58,0.1-1.15,0.19-1.72,0.31c-0.31,0.05-0.63,0.11-0.94,0.18
				c-0.15,0.03-0.3,0.06-0.44,0.09c-0.43,0.09-0.85,0.19-1.27,0.29c-0.5,0.12-1,0.24-1.49,0.37c-0.4,0.1-0.8,0.21-1.19,0.32
				c-0.54,0.15-1.08,0.31-1.61,0.47c-0.42,0.13-0.84,0.27-1.25,0.41c-0.44,0.15-0.88,0.3-1.32,0.45c-0.88,0.32-1.74,0.65-2.6,1
				c-0.29,0.11-0.58,0.23-0.86,0.36c-0.25,0.1-0.5,0.21-0.74,0.32c-0.37,0.16-0.73,0.32-1.08,0.49c-0.43,0.2-0.86,0.4-1.28,0.61
				c0,0-0.01,0-0.02,0c-0.42,0.21-0.83,0.42-1.24,0.63c-0.33,0.17-0.65,0.34-0.97,0.52c-0.23,0.12-0.47,0.26-0.71,0.38
				c-0.31,0.17-0.62,0.35-0.93,0.53c-0.37,0.21-0.72,0.42-1.08,0.64c-0.39,0.23-0.77,0.47-1.14,0.71c-0.03,0.02-0.07,0.04-0.1,0.07
				c-0.31,0.2-0.63,0.4-0.94,0.61c-0.13,0.08-0.27,0.17-0.4,0.26c-0.68,0.46-1.36,0.94-2.03,1.43c-0.42,0.3-0.84,0.62-1.25,0.94
				c-0.65,0.49-1.28,1-1.91,1.52c-1.18,0.97-2.31,2-3.42,3.06c-0.31,0.29-0.63,0.6-0.93,0.91c-0.33,0.33-0.65,0.66-0.97,1
				c-0.65,0.67-1.28,1.36-1.89,2.07c-0.27,0.3-0.53,0.61-0.8,0.92c-0.35,0.41-0.69,0.83-1.04,1.26c-0.28,0.35-0.56,0.71-0.84,1.07
				c-0.23,0.31-0.47,0.63-0.7,0.94c-0.57,0.76-1.12,1.54-1.65,2.34c-0.18,0.26-0.36,0.53-0.53,0.8c-0.04,0.05-0.08,0.1-0.11,0.16
				c-0.17,0.26-0.33,0.52-0.5,0.78c-0.21,0.33-0.41,0.66-0.61,1c-0.33,0.54-0.65,1.09-0.97,1.66c-0.24,0.42-0.47,0.85-0.7,1.28
				c-0.15,0.28-0.3,0.57-0.44,0.85c-0.42,0.81-0.82,1.62-1.19,2.45c-0.28,0.6-0.54,1.2-0.79,1.8c-0.42,0.99-0.81,1.98-1.18,2.99
				c-0.14,0.39-0.28,0.78-0.41,1.17c-0.15,0.41-0.28,0.83-0.41,1.25c-0.14,0.42-0.27,0.84-0.39,1.26c-0.13,0.42-0.24,0.84-0.36,1.26
				c0,0,0,0.01,0,0.01c-0.11,0.39-0.21,0.78-0.31,1.17c-0.04,0.12-0.07,0.24-0.09,0.35c-0.07,0.29-0.14,0.57-0.2,0.85
				c-0.21,0.88-0.4,1.77-0.56,2.67c-0.18,0.93-0.33,1.86-0.46,2.8c-0.42,2.94-0.63,5.93-0.63,8.98c0,1.02,0.02,2.04,0.07,3.04
				c0.31,6.57-0.37,13.17-2.35,19.44c-0.75,2.36-1.61,4.67-2.58,6.93c-1.77,4.13-3.9,8.06-6.36,11.76
				c-13.69,20.66-37.37,34.15-64.09,33.53c-39.25-0.91-71.38-32.53-72.89-71.77c-1.64-42.53,32.49-77.66,74.66-77.66
				c16.91,0,32.53,5.65,45.06,15.16c3.4,2.57,6.57,5.44,9.48,8.55l7.55,10.27c1.61,2.53,3.15,5.15,4.72,7.86
				c-3.01-0.31-5.22-0.75-7.42-0.72c-0.26,0-0.52,0.01-0.78,0.01c-1.43,0.03-2.86,0.08-4.29,0.14c-4.78,0.2-9.55,0.48-14.31,0.35
				c-9.82-0.28-17.78-3.62-22.75-11.45v0c-1.05-1.66-2.35-4.18-3.11-7.47c-0.51-2.22-0.63-4.19-0.61-5.74
				c9.23,0.69,17.67,3.58,25.78,7.55c-10.85-8.52-24.51-13.6-39.34-13.6c-36.03,0-65.18,30.01-63.77,66.34
				c1.28,33.37,28.5,60.31,61.88,61.29c25.53,0.74,47.86-13.6,58.72-34.76c0.03-0.06,0.06-0.12,0.1-0.19
				c4.19-8.23,6.03-17.42,5.76-26.65c-0.02-0.73-0.03-1.47-0.03-2.21c0-3.04,0.18-6.04,0.54-8.98c0.86-7.16,2.74-14.03,5.49-20.43
				c0.23-0.53,0.47-1.06,0.71-1.59c0.2-0.43,0.4-0.85,0.6-1.27c0.09-0.2,0.19-0.4,0.28-0.59c0.44-0.89,0.89-1.76,1.36-2.64
				c0.15-0.28,0.31-0.57,0.47-0.85c0.19-0.34,0.38-0.68,0.58-1.01c0.24-0.42,0.48-0.83,0.74-1.24c0.04-0.1,0.14-0.2,0.31-0.29
				c0.09-1.01,0.65-1.9,1.52-2.4c0.02-0.25,0.04-0.23,0.06-0.27c1.43-2.13,2.96-4.19,4.61-6.15c0.28-0.34,0.56-0.68,0.85-1.01
				c1.8-2.1,3.72-4.09,5.75-5.96c0.27-0.25,0.54-0.5,0.81-0.75c0.33-0.3,0.66-0.59,1.01-0.89c0.31-0.28,0.63-0.55,0.96-0.83
				c0.7-0.59,1.41-1.17,2.14-1.73c0.35-0.27,0.71-0.55,1.06-0.82c0.39-0.3,0.78-0.59,1.18-0.87c0.69-0.5,1.39-0.99,2.1-1.47
				c0.35-0.24,0.7-0.47,1.05-0.7c0.98-0.63,1.97-1.24,2.97-1.83c0.29-0.18,0.59-0.35,0.89-0.51c0.66-0.38,1.34-0.75,2.02-1.1
				c0.4-0.21,0.8-0.42,1.2-0.62c0.28-0.15,0.57-0.29,0.85-0.42c0.29-0.14,0.57-0.27,0.85-0.41c0.28-0.14,0.58-0.28,0.87-0.41
				c0.36-0.17,0.73-0.33,1.1-0.49c0.35-0.15,0.69-0.3,1.04-0.44c0.42-0.19,0.85-0.35,1.28-0.52c0.21-0.08,0.43-0.17,0.65-0.25
				c0.25-0.1,0.5-0.2,0.76-0.28c0.29-0.12,0.6-0.23,0.9-0.33c0.29-0.11,0.59-0.21,0.88-0.31c0.02-0.01,0.05-0.01,0.07-0.02
				c0.35-0.12,0.7-0.24,1.05-0.35c0.84-0.28,1.68-0.54,2.54-0.78c0.36-0.1,0.72-0.21,1.08-0.3c0.27-0.07,0.55-0.15,0.83-0.22
				c0.33-0.08,0.65-0.17,0.98-0.25c0.32-0.08,0.65-0.16,0.98-0.23c0.35-0.08,0.68-0.16,1.03-0.23c0.13-0.03,0.25-0.05,0.38-0.08
				c0.76-0.17,1.52-0.31,2.3-0.44c0.26-0.05,0.53-0.09,0.81-0.14c0.22-0.04,0.44-0.07,0.68-0.11c0.14-0.02,0.28-0.05,0.43-0.07
				c0.39-0.06,0.77-0.12,1.17-0.17c0.36-0.04,0.71-0.09,1.08-0.13c0.63-0.08,1.26-0.15,1.9-0.2c0.41-0.04,0.82-0.08,1.24-0.11
				c0.42-0.03,0.84-0.06,1.26-0.08c0.12-0.01,0.23-0.02,0.36-0.02c0.39-0.02,0.77-0.04,1.17-0.05h0.08c0.3-0.01,0.61-0.02,0.91-0.03
				c0.24,0,0.48-0.01,0.72-0.01c0.41,0,0.81-0.01,1.21-0.01C652.5,332.94,686.02,366.47,686.02,407.66z"/>
		</g>
		<g>
			<path class="st0" d="M506.35,366.6L506.35,366.6z"/>
		</g>
		<path class="st0" d="M473.25,365.49c-23.03,0-41.71,18.68-41.71,41.71s18.68,41.71,41.71,41.71c23.03,0,41.71-18.68,41.71-41.71
			S496.28,365.49,473.25,365.49z M487.89,428.34l-0.06-25.37l-12.45,20.9h-4.41l-12.39-20.36v24.83h-9.18v-42.28h8.09l15.83,26.28
			l15.58-26.28h8.03l0.12,42.28H487.89z"/>
		<polygon class="st0" points="497.07,428.34 487.89,428.34 487.83,402.97 475.39,423.87 470.98,423.87 458.59,403.52 
			458.59,428.34 449.42,428.34 449.42,386.06 457.51,386.06 473.34,412.33 488.92,386.06 496.95,386.06 		"/>
		<polygon class="st2" points="497.07,428.34 487.89,428.34 487.83,402.97 475.39,423.87 470.98,423.87 458.59,403.52 
			458.59,428.34 449.42,428.34 449.42,386.06 457.51,386.06 473.34,412.33 488.92,386.06 496.95,386.06 		"/>
		<path class="st2" d="M496.95,386.06h-8.03l-15.58,26.28l-15.83-26.28h-8.09v42.28h9.18v-24.83l12.39,20.36h4.41l12.45-20.9
			l0.06,25.37h9.18L496.95,386.06z"/>
		<path class="st0" d="M611.98,365.49c-23.03,0-41.71,18.68-41.71,41.71s18.68,41.71,41.71,41.71c23.03,0,41.71-18.68,41.71-41.71
			S635.01,365.49,611.98,365.49z M626.62,428.34l-0.06-25.37l-12.45,20.9h-4.41l-12.38-20.36v24.83h-9.18v-42.28h8.1l15.82,26.28
			l15.58-26.28h8.03l0.12,42.28H626.62z"/>
		<polygon class="st0" points="635.8,428.34 626.62,428.34 626.56,402.97 614.12,423.87 609.71,423.87 597.33,403.52 597.33,428.34 
			588.15,428.34 588.15,386.06 596.25,386.06 612.07,412.33 627.65,386.06 635.68,386.06 		"/>
		<polygon class="st2" points="635.8,428.34 626.62,428.34 626.56,402.97 614.12,423.87 609.71,423.87 597.33,403.52 597.33,428.34 
			588.15,428.34 588.15,386.06 596.25,386.06 612.07,412.33 627.65,386.06 635.68,386.06 		"/>
		<path class="st2" d="M635.68,386.06h-8.03l-15.58,26.28l-15.82-26.28h-8.1v42.28h9.18v-24.83l12.38,20.36h4.41l12.45-20.9
			l0.06,25.37h9.18L635.68,386.06z"/>
	</g>
</g>
</svg>
