<?xml version="1.0" encoding="utf-8"?>
<!-- Generator: Adobe Illustrator 24.0.1, SVG Export Plug-In . SVG Version: 6.00 Build 0)  -->
<svg version="1.1" id="Layer_1" xmlns="http://www.w3.org/2000/svg" xmlns:xlink="http://www.w3.org/1999/xlink" x="0px" y="0px"
	 viewBox="230 330 621 340" style="enable-background:new 0 0 1080 1080;" xml:space="preserve">
<style type="text/css">
	.st0{fill:#ED1C24;}
	.st1{fill:#0A723B;}
	.st2{fill:#FFFFFF;}
</style>
<g>
	<path class="st0" d="M-14.65,1389.02"/>
</g>
<g>
	<g>
		<path class="st0" d="M836.15,669.33c-0.34,0.1-0.65,0.18-0.91,0.25c0.29-0.09,0.59-0.18,0.88-0.26L836.15,669.33z"/>
	</g>
	<g>
		<g>
			<path class="st0" d="M295.49,506.83v58.08h-11.65v-37.78l-15.56,37.78h-8.82l-15.64-37.78v37.78h-11.65v-58.08h13.23l18.47,43.19
				l18.47-43.19H295.49z"/>
			<path class="st0" d="M318.62,515.9v15.06h19.55v8.99h-19.55v15.73h22.05v9.24h-33.7v-58.16h33.7v9.15H318.62z"/>
			<path class="st0" d="M399.42,506.83v58.08h-11.65v-24.88h-24.88v24.88h-11.65v-58.08h11.65v24.05h24.88v-24.05H399.42z"/>
			<path class="st0" d="M450.43,506.83v9.15h-15.48v48.93H423.3v-48.93h-15.48v-9.15H450.43z"/>
			<path class="st0" d="M494.53,553.85H471.4l-3.83,11.07h-12.23l20.89-58.16h13.56l20.89,58.16h-12.32L494.53,553.85z
				 M491.45,544.78l-8.49-24.55l-8.49,24.55H491.45z"/>
			<path class="st0" d="M598.54,507.5v57.41h-5.82v-45.85l-20.47,45.85H568l-20.47-45.68v45.68h-5.82V507.5h6.16l22.22,49.76
				l22.22-49.76H598.54z"/>
			<path class="st0" d="M645.47,551.1h-26.46l-5.08,13.81h-6.16l21.22-57.41h6.57l21.14,57.41h-6.16L645.47,551.1z M643.8,546.44
				l-11.57-31.62l-11.57,31.62H643.8z"/>
			<path class="st0" d="M673.55,563.5c-2.91-1.33-5.2-3.19-6.86-5.57c-1.66-2.38-2.55-5.05-2.66-7.99h6.16
				c0.28,2.89,1.52,5.41,3.74,7.57c2.22,2.16,5.46,3.25,9.73,3.25c3.94,0,7.06-1.04,9.36-3.12c2.3-2.08,3.45-4.67,3.45-7.78
				c0-2.5-0.64-4.51-1.91-6.03c-1.28-1.53-2.86-2.66-4.74-3.41c-1.89-0.75-4.49-1.57-7.82-2.45c-3.88-1.05-6.96-2.08-9.24-3.08
				c-2.28-1-4.22-2.55-5.82-4.66c-1.61-2.11-2.41-4.96-2.41-8.57c0-3,0.78-5.67,2.33-8.03c1.55-2.36,3.74-4.2,6.57-5.53
				c2.83-1.33,6.07-2,9.74-2c5.38,0,9.72,1.32,13.02,3.95c3.3,2.64,5.2,6.03,5.7,10.19h-6.32c-0.39-2.44-1.69-4.6-3.91-6.49
				c-2.22-1.89-5.21-2.83-8.99-2.83c-3.49,0-6.41,0.94-8.74,2.83c-2.33,1.89-3.49,4.47-3.49,7.74c0,2.44,0.64,4.41,1.91,5.91
				c1.28,1.5,2.87,2.64,4.78,3.41c1.91,0.78,4.51,1.61,7.78,2.5c3.77,1.05,6.82,2.09,9.15,3.12c2.33,1.03,4.3,2.59,5.91,4.7
				c1.61,2.11,2.41,4.94,2.41,8.49c0,2.72-0.72,5.3-2.16,7.74c-1.44,2.44-3.58,4.41-6.41,5.91c-2.83,1.5-6.21,2.25-10.15,2.25
				C679.83,565.5,676.46,564.83,673.55,563.5z"/>
			<path class="st0" d="M747.31,551.1h-26.46l-5.08,13.81h-6.16l21.22-57.41h6.57l21.14,57.41h-6.16L747.31,551.1z M745.65,546.44
				l-11.57-31.62l-11.57,31.62H745.65z"/>
			<path class="st0" d="M773.69,560.34h20.89v4.58h-26.71v-58.16h5.82V560.34z"/>
			<path class="st0" d="M836.6,551.1h-26.46l-5.08,13.81h-6.16l21.22-57.41h6.57l21.14,57.41h-6.16L836.6,551.1z M834.93,546.44
				l-11.57-31.62l-11.57,31.62H834.93z"/>
		</g>
		<g>
			<path class="st1" d="M321.89,585.81c1.36-2.38,3.23-4.24,5.62-5.57c2.38-1.33,5.04-2,7.96-2c3.45,0,6.45,0.84,9,2.52
				c2.54,1.68,4.3,4.04,5.27,7.09h-7.07c-0.7-1.29-1.67-2.27-2.9-2.94c-1.23-0.67-2.66-1.01-4.3-1.01c-1.81,0-3.42,0.41-4.83,1.23
				c-1.4,0.82-2.5,1.99-3.29,3.51c-0.79,1.52-1.18,3.28-1.18,5.27c0,2.05,0.4,3.83,1.21,5.35c0.8,1.52,1.92,2.69,3.36,3.51
				c1.43,0.82,3.1,1.23,5,1.23c2.34,0,4.26-0.63,5.77-1.89c1.51-1.26,2.48-3,2.92-5.22H333.9v-4.65h16.59v5.35
				c-0.41,2.14-1.29,4.11-2.63,5.92c-1.35,1.81-3.08,3.27-5.2,4.37c-2.12,1.1-4.5,1.65-7.13,1.65c-2.96,0-5.62-0.66-8.01-2
				c-2.39-1.33-4.26-3.18-5.62-5.55c-1.36-2.37-2.04-5.06-2.04-8.07C319.85,590.89,320.53,588.19,321.89,585.81z"/>
			<path class="st1" d="M379.62,609.26l-6.76-11.94h-2.9v11.94h-6.14v-30.63h11.5c2.37,0,4.39,0.42,6.06,1.25
				c1.67,0.83,2.92,1.96,3.75,3.38c0.83,1.42,1.25,3.01,1.25,4.76c0,2.02-0.59,3.84-1.76,5.46c-1.17,1.62-2.91,2.74-5.22,3.36
				l7.33,12.42H379.62z M369.97,592.76h5.13c1.67,0,2.91-0.41,3.73-1.23c0.82-0.82,1.23-1.94,1.23-3.38c0-1.43-0.41-2.55-1.23-3.36
				c-0.82-0.8-2.06-1.21-3.73-1.21h-5.13V592.76z"/>
			<path class="st1" d="M406.78,578.63v18.91c0,2.08,0.54,3.66,1.62,4.76c1.08,1.1,2.6,1.65,4.56,1.65c1.99,0,3.53-0.55,4.61-1.65
				c1.08-1.1,1.62-2.68,1.62-4.76v-18.91h6.19v18.91c0,2.6-0.56,4.81-1.69,6.6c-1.13,1.8-2.63,3.15-4.52,4.06
				c-1.89,0.91-3.99,1.36-6.3,1.36c-2.28,0-4.35-0.45-6.21-1.36c-1.86-0.91-3.33-2.26-4.41-4.06c-1.08-1.8-1.62-4-1.62-6.6v-18.91
				H406.78z"/>
			<path class="st1" d="M465.5,578.63v30.63h-6.14v-13.12h-13.12v13.12h-6.14v-30.63h6.14v12.68h13.12v-12.68H465.5z"/>
			<path class="st1" d="M506.92,578.63v18.91c0,2.08,0.54,3.66,1.62,4.76c1.08,1.1,2.6,1.65,4.56,1.65c1.99,0,3.53-0.55,4.61-1.65
				c1.08-1.1,1.62-2.68,1.62-4.76v-18.91h6.19v18.91c0,2.6-0.56,4.81-1.69,6.6c-1.13,1.8-2.63,3.15-4.52,4.06
				c-1.89,0.91-3.99,1.36-6.3,1.36c-2.28,0-4.35-0.45-6.21-1.36c-1.86-0.91-3.33-2.26-4.41-4.06c-1.08-1.8-1.62-4-1.62-6.6v-18.91
				H506.92z"/>
			<path class="st1" d="M559.43,580.52c2.44,1.26,4.33,3.05,5.66,5.38c1.33,2.33,2,5.02,2,8.1s-0.67,5.76-2,8.05
				c-1.33,2.3-3.22,4.07-5.66,5.33c-2.44,1.26-5.27,1.89-8.49,1.89h-10.71v-30.63h10.71C554.15,578.63,556.98,579.26,559.43,580.52z
				 M558.15,601.54c1.77-1.81,2.65-4.33,2.65-7.55c0-3.19-0.88-5.69-2.63-7.5c-1.76-1.81-4.24-2.72-7.46-2.72h-4.34v20.49h4.34
				C553.9,604.26,556.38,603.35,558.15,601.54z"/>
			<path class="st1" d="M605.88,578.63v30.63h-6.14v-13.12h-13.12v13.12h-6.14v-30.63h6.14v12.68h13.12v-12.68H605.88z"/>
			<path class="st1" d="M645.06,578.63l-10.36,19.97v10.66h-6.14V598.6l-10.4-19.97h6.93l6.54,13.95l6.49-13.95H645.06z"/>
			<path class="st1" d="M663.71,607.55c-2.4-1.35-4.3-3.21-5.7-5.59c-1.4-2.38-2.11-5.08-2.11-8.1c0-2.98,0.7-5.67,2.11-8.05
				c1.4-2.38,3.31-4.25,5.7-5.6c2.4-1.35,5.03-2.02,7.9-2.02c2.9,0,5.54,0.67,7.92,2.02c2.38,1.35,4.27,3.21,5.66,5.6
				c1.39,2.38,2.08,5.07,2.08,8.05c0,3.01-0.69,5.71-2.08,8.1c-1.39,2.38-3.28,4.25-5.68,5.59c-2.4,1.35-5.03,2.02-7.9,2.02
				C668.74,609.57,666.11,608.9,663.71,607.55z M676.48,602.66c1.4-0.83,2.5-2,3.29-3.51c0.79-1.51,1.18-3.27,1.18-5.29
				c0-2.02-0.39-3.78-1.18-5.29c-0.79-1.51-1.89-2.67-3.29-3.49c-1.4-0.82-3.03-1.23-4.87-1.23s-3.47,0.41-4.89,1.23
				c-1.42,0.82-2.52,1.98-3.31,3.49c-0.79,1.51-1.18,3.27-1.18,5.29c0,2.02,0.39,3.78,1.18,5.29c0.79,1.51,1.89,2.68,3.31,3.51
				c1.42,0.83,3.05,1.25,4.89,1.25S675.08,603.49,676.48,602.66z"/>
			<path class="st1" d="M701.16,585.81c1.36-2.38,3.23-4.24,5.62-5.57c2.38-1.33,5.04-2,7.96-2c3.45,0,6.45,0.84,9,2.52
				c2.55,1.68,4.3,4.04,5.27,7.09h-7.07c-0.7-1.29-1.67-2.27-2.9-2.94c-1.23-0.67-2.66-1.01-4.3-1.01c-1.81,0-3.42,0.41-4.83,1.23
				c-1.4,0.82-2.5,1.99-3.29,3.51c-0.79,1.52-1.18,3.28-1.18,5.27c0,2.05,0.4,3.83,1.21,5.35c0.8,1.52,1.92,2.69,3.36,3.51
				c1.43,0.82,3.1,1.23,5,1.23c2.34,0,4.26-0.63,5.77-1.89c1.51-1.26,2.48-3,2.92-5.22h-10.53v-4.65h16.59v5.35
				c-0.41,2.14-1.29,4.11-2.63,5.92c-1.35,1.81-3.08,3.27-5.2,4.37c-2.12,1.1-4.5,1.65-7.13,1.65c-2.96,0-5.62-0.66-8.01-2
				c-2.38-1.33-4.26-3.18-5.62-5.55c-1.36-2.37-2.04-5.06-2.04-8.07C699.12,590.89,699.8,588.19,701.16,585.81z"/>
		</g>
	</g>
	<g>
		<path class="st0" d="M658.05,475.78c-0.13,0.04-0.25,0.07-0.36,0.1c0.11-0.03,0.23-0.07,0.34-0.1L658.05,475.78z"/>
	</g>
	<g>
		<g>
			<path class="st0" d="M601.12,660.25H451.7v-5.1c0-17.9,14.51-32.42,32.42-32.42h149.42v5.1
				C633.54,645.74,619.02,660.25,601.12,660.25z"/>
		</g>
		<g>
			<path class="st2" d="M549.42,635.74v-3.64h6.75v19.88h-4.03v-16.24H549.42z"/>
			<path class="st2" d="M565.59,648.14c0.53,0.44,1.25,0.66,2.14,0.66c1.16,0,2-0.48,2.52-1.44c0.52-0.96,0.78-2.58,0.78-4.86
				c-0.43,0.6-1.03,1.06-1.81,1.4c-0.78,0.34-1.61,0.5-2.51,0.5c-1.21,0-2.3-0.25-3.26-0.74c-0.96-0.49-1.72-1.23-2.27-2.21
				c-0.55-0.98-0.83-2.16-0.83-3.54c0-2.07,0.61-3.72,1.83-4.96c1.22-1.23,2.91-1.85,5.05-1.85c2.65,0,4.52,0.85,5.6,2.56
				s1.62,4.27,1.62,7.69c0,2.43-0.21,4.41-0.62,5.95c-0.41,1.54-1.12,2.71-2.13,3.51c-1.01,0.8-2.39,1.2-4.14,1.2
				c-1.4,0-2.59-0.27-3.56-0.8c-0.97-0.53-1.71-1.23-2.23-2.1c-0.51-0.87-0.81-1.82-0.88-2.87h3.64
				C564.72,647.07,565.06,647.7,565.59,648.14z M569.84,640.31c0.56-0.6,0.84-1.4,0.84-2.41c0-1.1-0.29-1.96-0.88-2.56
				c-0.59-0.61-1.39-0.91-2.39-0.91s-1.81,0.31-2.39,0.94c-0.59,0.63-0.88,1.45-0.88,2.48c0,0.99,0.28,1.8,0.85,2.42
				c0.57,0.63,1.42,0.94,2.56,0.94C568.51,641.21,569.28,640.91,569.84,640.31z"/>
			<path class="st2" d="M587.19,634.9c-0.46-0.39-1.12-0.59-1.97-0.59c-1.29,0-2.24,0.52-2.84,1.55c-0.61,1.04-0.92,2.72-0.94,5.06
				c0.45-0.75,1.1-1.33,1.96-1.75c0.86-0.42,1.79-0.63,2.8-0.63c1.21,0,2.29,0.26,3.22,0.78c0.93,0.52,1.66,1.28,2.19,2.28
				c0.52,1,0.78,2.2,0.78,3.6c0,1.33-0.27,2.51-0.8,3.54c-0.53,1.04-1.31,1.84-2.34,2.42c-1.03,0.58-2.25,0.87-3.67,0.87
				c-1.94,0-3.47-0.43-4.58-1.29c-1.11-0.86-1.89-2.06-2.32-3.6c-0.44-1.54-0.66-3.44-0.66-5.7c0-3.42,0.59-6,1.76-7.74
				c1.18-1.74,3.03-2.62,5.57-2.62c1.96,0,3.48,0.53,4.56,1.6c1.08,1.06,1.71,2.39,1.88,3.98h-3.64
				C587.96,635.89,587.64,635.3,587.19,634.9z M582.8,642.63c-0.67,0.58-1.01,1.42-1.01,2.52s0.31,1.97,0.94,2.6
				c0.63,0.64,1.51,0.95,2.65,0.95c1.01,0,1.81-0.31,2.39-0.92c0.59-0.62,0.88-1.45,0.88-2.49c0-1.08-0.28-1.94-0.85-2.58
				c-0.57-0.63-1.4-0.95-2.51-0.95C584.3,641.77,583.47,642.06,582.8,642.63z"/>
			<path class="st2" d="M601.05,648.14c0.53,0.44,1.25,0.66,2.14,0.66c1.16,0,2-0.48,2.52-1.44c0.52-0.96,0.78-2.58,0.78-4.86
				c-0.43,0.6-1.03,1.06-1.81,1.4c-0.77,0.34-1.61,0.5-2.51,0.5c-1.21,0-2.3-0.25-3.26-0.74c-0.96-0.49-1.72-1.23-2.27-2.21
				c-0.55-0.98-0.83-2.16-0.83-3.54c0-2.07,0.61-3.72,1.83-4.96c1.22-1.23,2.91-1.85,5.06-1.85c2.65,0,4.52,0.85,5.6,2.56
				c1.08,1.71,1.62,4.27,1.62,7.69c0,2.43-0.21,4.41-0.62,5.95c-0.41,1.54-1.12,2.71-2.13,3.51c-1.01,0.8-2.39,1.2-4.14,1.2
				c-1.4,0-2.59-0.27-3.56-0.8c-0.97-0.53-1.71-1.23-2.23-2.1c-0.51-0.87-0.81-1.82-0.88-2.87h3.64
				C600.17,647.07,600.52,647.7,601.05,648.14z M605.29,640.31c0.56-0.6,0.84-1.4,0.84-2.41c0-1.1-0.29-1.96-0.88-2.56
				c-0.59-0.61-1.39-0.91-2.39-0.91c-1.01,0-1.81,0.31-2.39,0.94c-0.59,0.63-0.88,1.45-0.88,2.48c0,0.99,0.28,1.8,0.85,2.42
				c0.57,0.63,1.42,0.94,2.56,0.94C603.96,641.21,604.73,640.91,605.29,640.31z"/>
		</g>
		<g>
			<path class="st2" d="M483.18,635.49v5.07h6.58v3.02h-6.58v5.29h7.42v3.11h-11.34v-19.58h11.34v3.08H483.18z"/>
			<path class="st2" d="M497.23,651.48c-1.09-0.47-1.96-1.14-2.59-2.02c-0.63-0.88-0.96-1.91-0.98-3.11h4.2
				c0.06,0.82,0.34,1.48,0.85,1.96c0.51,0.49,1.22,0.73,2.11,0.73c0.91,0,1.63-0.22,2.16-0.67c0.52-0.45,0.78-1.04,0.78-1.79
				c0-0.58-0.18-1.05-0.53-1.43c-0.35-0.37-0.8-0.67-1.33-0.88c-0.53-0.21-1.27-0.45-2.2-0.71c-1.27-0.37-2.3-0.74-3.09-1.11
				c-0.79-0.36-1.48-0.91-2.04-1.65c-0.57-0.74-0.85-1.72-0.85-2.95c0-1.16,0.29-2.17,0.87-3.02c0.58-0.86,1.39-1.52,2.44-1.97
				c1.05-0.46,2.24-0.69,3.58-0.69c2.02,0,3.65,0.49,4.91,1.47c1.26,0.98,1.96,2.35,2.09,4.1h-4.31c-0.04-0.73-0.32-1.31-0.85-1.75
				c-0.53-0.44-1.24-0.66-2.11-0.66c-0.77,0-1.38,0.2-1.83,0.6c-0.46,0.4-0.69,0.99-0.69,1.78c0,0.52,0.17,0.96,0.52,1.3
				c0.35,0.35,0.77,0.63,1.29,0.84c0.51,0.21,1.24,0.46,2.17,0.74c1.27,0.37,2.31,0.75,3.11,1.12c0.8,0.37,1.49,0.93,2.07,1.68
				c0.58,0.75,0.87,1.73,0.87,2.94c0,1.05-0.27,2.02-0.81,2.91c-0.54,0.9-1.33,1.61-2.38,2.14c-1.05,0.53-2.29,0.8-3.72,0.8
				C499.54,652.18,498.32,651.95,497.23,651.48z"/>
			<path class="st2" d="M524.52,632.44v3.08h-5.21v16.47h-3.92v-16.47h-5.21v-3.08H524.52z"/>
			<path class="st2" d="M527.36,651.53c-0.46-0.44-0.69-0.98-0.69-1.64c0-0.65,0.23-1.2,0.69-1.64c0.46-0.44,1.04-0.66,1.75-0.66
				c0.69,0,1.26,0.22,1.71,0.66c0.45,0.44,0.67,0.99,0.67,1.64c0,0.65-0.22,1.2-0.67,1.64c-0.45,0.44-1.02,0.66-1.71,0.66
				C528.4,652.18,527.82,651.96,527.36,651.53z"/>
		</g>
	</g>
	<g>
		<g>
			<path class="st0" d="M564.75,410.45c0.06,0.51,0.13,1.02,0.21,1.53l-0.08-0.62C564.83,411.06,564.79,410.76,564.75,410.45z"/>
		</g>
		<g>
			<path class="st1" d="M686.02,407.66c0,40.88-33,74.2-73.75,74.72h-0.04c-0.77,0.02-1.54,0.02-2.31,0.01
				c-16.91-0.16-32.48-5.95-44.92-15.58c-3.38-2.6-6.52-5.49-9.41-8.63l-7.45-10.34c-1.59-2.54-3.11-5.18-4.65-7.9
				c3.01,0.34,5.21,0.8,7.41,0.79c0.26,0,0.52,0,0.78-0.01c0.41,0,0.82-0.01,1.24-0.02c1.02-0.01,2.04-0.04,3.06-0.07
				c0.23-0.01,0.47-0.01,0.7-0.02c4.55-0.16,9.08-0.36,13.61-0.2c9.82,0.37,17.74,3.78,22.64,11.66l0,0c1.03,1.67,2.31,4.2,3.04,7.5
				c0.49,2.22,0.59,4.2,0.55,5.74c-8.49-0.71-16.32-3.29-23.8-6.86c-0.64-0.3-1.27-0.61-1.9-0.93
				c10.77,8.61,24.38,13.82,39.21,13.96c0.39,0,0.79,0,1.18,0c0.24,0,0.48,0,0.71,0c5.69-0.11,11.22-0.98,16.47-2.51
				c0.03-0.01,0.06-0.02,0.1-0.03c0.1-0.03,0.22-0.06,0.36-0.1c1.49-0.43,4.58-1.33,5.42-1.63c0.05-0.01,0.09-0.03,0.12-0.04
				c23.83-9.26,40.76-32.45,40.76-59.52c0-35.19-28.63-63.82-63.82-63.82c-0.84,0-1.68,0.02-2.52,0.05
				c-0.25,0.01-0.49,0.02-0.73,0.04c-0.41,0.01-0.82,0.04-1.24,0.07c-0.49,0.03-0.99,0.07-1.47,0.12c-0.54,0.05-1.08,0.1-1.62,0.17
				c-0.43,0.05-0.87,0.11-1.31,0.17c-0.45,0.06-0.89,0.13-1.34,0.2c-0.58,0.1-1.15,0.19-1.72,0.31c-0.31,0.05-0.63,0.11-0.94,0.18
				c-0.15,0.03-0.3,0.06-0.44,0.09c-0.43,0.09-0.85,0.19-1.27,0.29c-0.5,0.12-1,0.24-1.49,0.37c-0.4,0.1-0.8,0.21-1.19,0.32
				c-0.54,0.15-1.08,0.31-1.61,0.47c-0.42,0.13-0.84,0.27-1.25,0.41c-0.44,0.15-0.88,0.3-1.32,0.45c-0.88,0.32-1.74,0.65-2.6,1
				c-0.29,0.11-0.58,0.23-0.86,0.36c-0.25,0.1-0.5,0.21-0.74,0.32c-0.37,0.16-0.73,0.32-1.08,0.49c-0.43,0.2-0.86,0.4-1.28,0.61
				c0,0-0.01,0-0.02,0c-0.42,0.21-0.83,0.42-1.24,0.63c-0.33,0.17-0.65,0.34-0.97,0.52c-0.23,0.12-0.47,0.26-0.71,0.38
				c-0.31,0.17-0.62,0.35-0.93,0.53c-0.37,0.21-0.72,0.42-1.08,0.64c-0.39,0.23-0.77,0.47-1.14,0.71c-0.03,0.02-0.07,0.04-0.1,0.07
				c-0.31,0.2-0.63,0.4-0.94,0.61c-0.13,0.08-0.27,0.17-0.4,0.26c-0.68,0.46-1.36,0.94-2.03,1.43c-0.42,0.3-0.84,0.62-1.25,0.94
				c-0.65,0.49-1.28,1-1.91,1.52c-1.18,0.97-2.31,2-3.42,3.06c-0.31,0.29-0.63,0.6-0.93,0.91c-0.33,0.33-0.65,0.66-0.97,1
				c-0.65,0.67-1.28,1.36-1.89,2.07c-0.27,0.3-0.53,0.61-0.8,0.92c-0.35,0.41-0.69,0.83-1.04,1.26c-0.28,0.35-0.56,0.71-0.84,1.07
				c-0.23,0.31-0.47,0.63-0.7,0.94c-0.57,0.76-1.12,1.54-1.65,2.34c-0.18,0.26-0.36,0.53-0.53,0.8c-0.04,0.05-0.08,0.1-0.11,0.16
				c-0.17,0.26-0.33,0.52-0.5,0.78c-0.21,0.33-0.41,0.66-0.61,1c-0.33,0.54-0.65,1.09-0.97,1.66c-0.24,0.42-0.47,0.85-0.7,1.28
				c-0.15,0.28-0.3,0.57-0.44,0.85c-0.42,0.81-0.82,1.62-1.19,2.45c-0.28,0.6-0.54,1.2-0.79,1.8c-0.42,0.99-0.81,1.98-1.18,2.99
				c-0.14,0.39-0.28,0.78-0.41,1.17c-0.15,0.41-0.28,0.83-0.41,1.25c-0.14,0.42-0.27,0.84-0.39,1.26c-0.13,0.42-0.24,0.84-0.36,1.26
				c0,0,0,0.01,0,0.01c-0.11,0.39-0.21,0.78-0.31,1.17c-0.04,0.12-0.07,0.24-0.09,0.35c-0.07,0.29-0.14,0.57-0.2,0.85
				c-0.21,0.88-0.4,1.77-0.56,2.67c-0.18,0.93-0.33,1.86-0.46,2.8c-0.42,2.94-0.63,5.93-0.63,8.98c0,1.02,0.02,2.04,0.07,3.04
				c0.31,6.57-0.37,13.17-2.35,19.44c-0.75,2.36-1.61,4.67-2.58,6.93c-1.77,4.13-3.9,8.06-6.36,11.76
				c-13.69,20.66-37.37,34.15-64.09,33.53c-39.25-0.91-71.38-32.53-72.89-71.77c-1.64-42.53,32.49-77.66,74.66-77.66
				c16.91,0,32.53,5.65,45.06,15.16c3.4,2.57,6.57,5.44,9.48,8.55l7.55,10.27c1.61,2.53,3.15,5.15,4.72,7.86
				c-3.01-0.31-5.22-0.75-7.42-0.72c-0.26,0-0.52,0.01-0.78,0.01c-1.43,0.03-2.86,0.08-4.29,0.14c-4.78,0.2-9.55,0.48-14.31,0.35
				c-9.82-0.28-17.78-3.62-22.75-11.45v0c-1.05-1.66-2.35-4.18-3.11-7.47c-0.51-2.22-0.63-4.19-0.61-5.74
				c9.23,0.69,17.67,3.58,25.78,7.55c-10.85-8.52-24.51-13.6-39.34-13.6c-36.03,0-65.18,30.01-63.77,66.34
				c1.28,33.37,28.5,60.31,61.88,61.29c25.53,0.74,47.86-13.6,58.72-34.76c0.03-0.06,0.06-0.12,0.1-0.19
				c4.19-8.23,6.03-17.42,5.76-26.65c-0.02-0.73-0.03-1.47-0.03-2.21c0-3.04,0.18-6.04,0.54-8.98c0.86-7.16,2.74-14.03,5.49-20.43
				c0.23-0.53,0.47-1.06,0.71-1.59c0.2-0.43,0.4-0.85,0.6-1.27c0.09-0.2,0.19-0.4,0.28-0.59c0.44-0.89,0.89-1.76,1.36-2.64
				c0.15-0.28,0.31-0.57,0.47-0.85c0.19-0.34,0.38-0.68,0.58-1.01c0.24-0.42,0.48-0.83,0.74-1.24c0.04-0.1,0.14-0.2,0.31-0.29
				c0.09-1.01,0.65-1.9,1.52-2.4c0.02-0.25,0.04-0.23,0.06-0.27c1.43-2.13,2.96-4.19,4.61-6.15c0.28-0.34,0.56-0.68,0.85-1.01
				c1.8-2.1,3.72-4.09,5.75-5.96c0.27-0.25,0.54-0.5,0.81-0.75c0.33-0.3,0.66-0.59,1.01-0.89c0.31-0.28,0.63-0.55,0.96-0.83
				c0.7-0.59,1.41-1.17,2.14-1.73c0.35-0.27,0.71-0.55,1.06-0.82c0.39-0.3,0.78-0.59,1.18-0.87c0.69-0.5,1.39-0.99,2.1-1.47
				c0.35-0.24,0.7-0.47,1.05-0.7c0.98-0.63,1.97-1.24,2.97-1.83c0.29-0.18,0.59-0.35,0.89-0.51c0.66-0.38,1.34-0.75,2.02-1.1
				c0.4-0.21,0.8-0.42,1.2-0.62c0.28-0.15,0.57-0.29,0.85-0.42c0.29-0.14,0.57-0.27,0.85-0.41c0.28-0.14,0.58-0.28,0.87-0.41
				c0.36-0.17,0.73-0.33,1.1-0.49c0.35-0.15,0.69-0.3,1.04-0.44c0.42-0.19,0.85-0.35,1.28-0.52c0.21-0.08,0.43-0.17,0.65-0.25
				c0.25-0.1,0.5-0.2,0.76-0.28c0.29-0.12,0.6-0.23,0.9-0.33c0.29-0.11,0.59-0.21,0.88-0.31c0.02-0.01,0.05-0.01,0.07-0.02
				c0.35-0.12,0.7-0.24,1.05-0.35c0.84-0.28,1.68-0.54,2.54-0.78c0.36-0.1,0.72-0.21,1.08-0.3c0.27-0.07,0.55-0.15,0.83-0.22
				c0.33-0.08,0.65-0.17,0.98-0.25c0.32-0.08,0.65-0.16,0.98-0.23c0.35-0.08,0.68-0.16,1.03-0.23c0.13-0.03,0.25-0.05,0.38-0.08
				c0.76-0.17,1.52-0.31,2.3-0.44c0.26-0.05,0.53-0.09,0.81-0.14c0.22-0.04,0.44-0.07,0.68-0.11c0.14-0.02,0.28-0.05,0.43-0.07
				c0.39-0.06,0.77-0.12,1.17-0.17c0.36-0.04,0.71-0.09,1.08-0.13c0.63-0.08,1.26-0.15,1.9-0.2c0.41-0.04,0.82-0.08,1.24-0.11
				c0.42-0.03,0.84-0.06,1.26-0.08c0.12-0.01,0.23-0.02,0.36-0.02c0.39-0.02,0.77-0.04,1.17-0.05h0.08c0.3-0.01,0.61-0.02,0.91-0.03
				c0.24,0,0.48-0.01,0.72-0.01c0.41,0,0.81-0.01,1.21-0.01C652.5,332.94,686.02,366.47,686.02,407.66z"/>
		</g>
		<g>
			<path class="st0" d="M506.35,366.6L506.35,366.6z"/>
		</g>
		<path class="st0" d="M473.25,365.49c-23.03,0-41.71,18.68-41.71,41.71s18.68,41.71,41.71,41.71c23.03,0,41.71-18.68,41.71-41.71
			S496.28,365.49,473.25,365.49z M487.89,428.34l-0.06-25.37l-12.45,20.9h-4.41l-12.39-20.36v24.83h-9.18v-42.28h8.09l15.83,26.28
			l15.58-26.28h8.03l0.12,42.28H487.89z"/>
		<polygon class="st0" points="497.07,428.34 487.89,428.34 487.83,402.97 475.39,423.87 470.98,423.87 458.59,403.52 
			458.59,428.34 449.42,428.34 449.42,386.06 457.51,386.06 473.34,412.33 488.92,386.06 496.95,386.06 		"/>
		<polygon class="st2" points="497.07,428.34 487.89,428.34 487.83,402.97 475.39,423.87 470.98,423.87 458.59,403.52 
			458.59,428.34 449.42,428.34 449.42,386.06 457.51,386.06 473.34,412.33 488.92,386.06 496.95,386.06 		"/>
		<path class="st2" d="M496.95,386.06h-8.03l-15.58,26.28l-15.83-26.28h-8.09v42.28h9.18v-24.83l12.39,20.36h4.41l12.45-20.9
			l0.06,25.37h9.18L496.95,386.06z"/>
		<path class="st0" d="M611.98,365.49c-23.03,0-41.71,18.68-41.71,41.71s18.68,41.71,41.71,41.71c23.03,0,41.71-18.68,41.71-41.71
			S635.01,365.49,611.98,365.49z M626.62,428.34l-0.06-25.37l-12.45,20.9h-4.41l-12.38-20.36v24.83h-9.18v-42.28h8.1l15.82,26.28
			l15.58-26.28h8.03l0.12,42.28H626.62z"/>
		<polygon class="st0" points="635.8,428.34 626.62,428.34 626.56,402.97 614.12,423.87 609.71,423.87 597.33,403.52 597.33,428.34 
			588.15,428.34 588.15,386.06 596.25,386.06 612.07,412.33 627.65,386.06 635.68,386.06 		"/>
		<polygon class="st2" points="635.8,428.34 626.62,428.34 626.56,402.97 614.12,423.87 609.71,423.87 597.33,403.52 597.33,428.34 
			588.15,428.34 588.15,386.06 596.25,386.06 612.07,412.33 627.65,386.06 635.68,386.06 		"/>
		<path class="st2" d="M635.68,386.06h-8.03l-15.58,26.28l-15.82-26.28h-8.1v42.28h9.18v-24.83l12.38,20.36h4.41l12.45-20.9
			l0.06,25.37h9.18L635.68,386.06z"/>
	</g>
</g>
</svg>
